<?xml version="1.0" encoding="UTF-8"?>
<svg width="229px" height="229px" viewBox="0 0 229 229" version="1.1" xmlns="http://www.w3.org/2000/svg" xmlns:xlink="http://www.w3.org/1999/xlink">
    <title>Group 72</title>
    <g id="Page-1" stroke="none" stroke-width="1" fill="none" fill-rule="evenodd">
        <g id="Group-72" fill="#1A171B">
            <polygon id="Fill-1" points="0 187.892 18.583 187.892 18.583 40.162 0 40.162"></polygon>
            <polygon id="Fill-2" points="209.481 187.892 228.063 187.892 228.063 40.162 209.481 40.162"></polygon>
            <polygon id="Fill-3" points="40.164 228.052 187.901 228.052 187.901 209.471 40.164 209.471"></polygon>
            <polygon id="Fill-4" points="40.164 18.581 187.901 18.581 187.901 0 40.164 0"></polygon>
            <polygon id="Fill-5" points="78.5752 49.3518 75.9742 50.8468 74.2902 44.8938"></polygon>
            <polygon id="Fill-6" points="50.8779 75.9236 49.3799 78.5246 44.9329 74.2226"></polygon>
            <polygon id="Fill-7" points="50.8779 75.9236 49.3799 78.5246 44.9329 74.2226"></polygon>
            <polygon id="Fill-8" points="65.3926 67.6047 62.5706 68.6257 61.9486 62.4697"></polygon>
            <polygon id="Fill-9" points="44.6689 103.0974 43.1119 105.6614 38.7619 101.2634"></polygon>
            <polygon id="Fill-10" points="49.6572 150.0325 51.1752 152.6205 45.2362 154.3545"></polygon>
            <polygon id="Fill-11" points="49.6582 131.6428 49.1642 134.6008 43.4932 132.1288"></polygon>
            <polygon id="Fill-12" points="76.4648 177.4997 79.0768 178.9767 74.8138 183.4587"></polygon>
            <polygon id="Fill-13" points="97.4434 178.9509 99.7844 180.8279 94.8554 184.5659"></polygon>
            <polygon id="Fill-14" points="149.5 178.6911 152.102 177.1951 153.785 183.1481"></polygon>
            <polygon id="Fill-15" points="177.1973 152.1203 178.6933 149.5203 183.1403 153.8213"></polygon>
            <polygon id="Fill-16" points="161.2246 160.9695 164.0296 159.9055 164.7496 166.0495"></polygon>
            <polygon id="Fill-17" points="183.0195 125.51 184.7205 123.038 188.8085 127.68"></polygon>
            <polygon id="Fill-18" points="178.418 78.0124 176.9 75.4244 182.838 73.6904"></polygon>
            <polygon id="Fill-19" points="178.4316 96.2029 178.7756 93.2229 184.5626 95.4079"></polygon>
            <polygon id="Fill-20" points="152.0312 50.9006 149.4202 49.4246 153.6832 44.9416"></polygon>
            <polygon id="Fill-21" points="131.0352 49.6389 128.7312 47.7189 133.7302 44.0739"></polygon>
            <polygon id="Fill-22" points="80.0869 68.7287 82.8959 67.6747 83.5909 73.8227"></polygon>
            <polygon id="Fill-23" points="68.5596 80.7165 69.5626 77.8895 74.7126 81.3165"></polygon>
            <polygon id="Fill-24" points="60.9795 93.0393 62.9165 90.7483 66.5265 95.7713"></polygon>
            <polygon id="Fill-25" points="62.5859 136.8572 60.6219 134.5892 66.1469 131.8032"></polygon>
            <polygon id="Fill-26" points="70.4209 152.7668 69.5009 149.9118 75.6739 149.5048"></polygon>
            <polygon id="Fill-27" points="93.0547 167.133 90.7577 165.203 95.7717 161.579"></polygon>
            <polygon id="Fill-28" points="56.9688 124.9162 57.4808 121.9592 63.1358 124.4692"></polygon>
            <polygon id="Fill-29" points="150.0371 69.5227 147.2071 68.5297 146.6421 74.6897"></polygon>
            <polygon id="Fill-30" points="163.1973 88.2424 161.5973 85.7034 157.3243 90.1764"></polygon>
            <polygon id="Fill-31" points="159.4727 147.5305 160.6097 144.7535 154.4847 143.8745"></polygon>
            <polygon id="Fill-32" points="167.0703 135.0759 169.0583 132.8299 163.5683 129.9809"></polygon>
            <polygon id="Fill-33" points="147.6797 159.4167 150.5217 158.4537 147.1717 153.2527"></polygon>
            <polygon id="Fill-34" points="170.8965 103.7082 171.4965 100.7692 165.3165 101.0442"></polygon>
            <g id="Group-71" transform="translate(18.592800, 18.582600)">
                <path d="M32.5293,72.0563 C33.6303,70.8443 34.7053,69.6583 35.6933,68.5323 C35.5083,65.6183 35.7183,63.1143 36.6423,61.5143 C38.9113,57.5863 48.0433,54.6583 55.3803,52.3063 C60.1823,50.7663 64.7183,49.3123 67.7663,47.5533 C70.5673,45.9363 73.7783,43.1103 77.1823,40.0413 C74.4983,39.4963 71.8773,39.0333 69.5093,38.8113 C67.7543,40.3063 66.1383,41.5653 64.7653,42.3563 C62.2753,43.7953 58.0363,45.1543 53.5483,46.5923 C44.3663,49.5353 34.8733,52.5783 31.4463,58.5143 C29.1333,62.5193 29.3443,68.2603 30.3523,74.4643 C31.0753,73.6603 31.8033,72.8563 32.5293,72.0563" id="Fill-35"></path>
                <path d="M39.1943,78.1046 C42.5843,74.3686 45.7863,70.8416 47.5463,67.7946 C49.1593,65.0006 50.5163,60.9516 51.9183,56.5946 C49.4763,57.4206 46.8883,58.3626 44.6723,59.3576 C43.9033,61.5316 43.1373,63.4276 42.3483,64.7946 C40.9113,67.2846 37.9193,70.5816 34.7523,74.0716 C28.2723,81.2096 21.5723,88.5926 21.5723,95.4456 C21.5723,100.0586 24.6093,104.9126 28.5703,109.7676 C28.7903,108.7266 29.0143,107.6856 29.2403,106.6466 C29.5903,105.0246 29.9343,103.4376 30.2293,101.9536 C28.6293,99.5396 27.5733,97.2816 27.5733,95.4456 C27.5733,90.9086 34.0163,83.8096 39.1943,78.1046" id="Fill-37"></path>
                <path d="M42.2519,133.7116 C39.6329,132.4146 37.5669,130.9796 36.6439,129.3776 C34.3749,125.4496 36.4049,116.0796 38.0359,108.5506 C39.1049,103.6196 40.1129,98.9626 40.1129,95.4456 C40.1129,92.2276 39.2679,88.0516 38.3059,83.5886 C36.6019,85.5296 34.8309,87.6416 33.4129,89.6116 C33.8309,91.8636 34.1129,93.8756 34.1129,95.4456 C34.1129,98.3226 33.1699,102.6716 32.1719,107.2786 C30.1309,116.7006 28.0209,126.4416 31.4469,132.3776 C33.7599,136.3846 38.8399,139.0726 44.7209,141.3026 C44.3859,140.2796 44.0559,139.2526 43.7279,138.2286 C43.2259,136.6646 42.7339,135.1346 42.2519,133.7116" id="Fill-39"></path>
                <path d="M68.4795,155.1671 C67.8955,155.2021 67.3255,155.2201 66.7725,155.2201 C64.4325,155.2201 62.6615,154.8821 61.5065,154.2161 C57.5785,151.9491 54.6505,142.8181 52.2985,135.4801 C50.7585,130.6781 49.3045,126.1431 47.5455,123.0971 C45.9295,120.2981 43.0955,117.0931 40.0185,113.6971 C39.5135,116.2241 39.0355,118.9351 38.7905,121.3531 C40.2925,123.1081 41.5575,124.7261 42.3485,126.0961 C43.7865,128.5861 45.1455,132.8251 46.5845,137.3131 C49.5285,146.4941 52.5725,155.9851 58.5065,159.4131 C60.6145,160.6301 63.3175,161.2201 66.7725,161.2201 C69.1765,161.2201 71.7585,160.9371 74.4145,160.5091 C73.6165,159.7921 72.8205,159.0711 72.0275,158.3511 C70.8065,157.2431 69.6125,156.1611 68.4795,155.1671" id="Fill-41"></path>
                <path d="M160.5263,116.4289 C159.8033,117.2339 159.0773,118.0359 158.3523,118.8349 C157.2533,120.0459 156.1763,121.2319 155.1903,122.3569 C155.3763,125.2659 155.1573,127.7609 154.2153,129.3409 C151.8803,133.2549 142.7763,136.1959 135.4603,138.5589 C130.6573,140.1119 126.1223,141.5759 123.0713,143.3379 C120.2883,144.9449 117.1003,147.7579 113.7213,150.8179 C116.4053,151.3549 119.0283,151.8139 121.3973,152.0329 C123.1283,150.5559 124.7193,149.3139 126.0713,148.5349 C128.5713,147.0899 132.8133,145.7209 137.3033,144.2699 C146.4343,141.3189 155.8763,138.2679 159.3683,132.4149 C161.7513,128.4209 161.5473,122.6609 160.5263,116.4289" id="Fill-43"></path>
                <path d="M162.2744,81.0792 C162.0534,82.1382 161.8254,83.1942 161.5964,84.2492 C161.2494,85.8482 160.9114,87.4162 160.6184,88.8872 C162.2374,91.3212 163.3074,93.5962 163.3074,95.4452 C163.3074,99.9822 156.8644,107.0812 151.6864,112.7872 C148.2974,116.5222 145.0944,120.0502 143.3374,123.0972 C141.7334,125.8732 140.3894,129.8972 139.0064,134.2312 C141.4524,133.3952 144.0384,132.4442 146.2514,131.4402 C147.0044,129.3032 147.7564,127.4402 148.5324,126.0962 C149.9694,123.6062 152.9614,120.3092 156.1294,116.8192 C162.6084,109.6812 169.3074,102.2992 169.3074,95.4452 C169.3074,90.8192 166.2534,85.9522 162.2744,81.0792" id="Fill-45"></path>
                <path d="M159.3896,58.5138 C157.0886,54.5268 152.0476,51.8468 146.2036,49.6228 C146.5356,50.6408 146.8606,51.6628 147.1846,52.6808 C147.6706,54.2108 148.1626,55.7598 148.6556,57.2158 C151.2416,58.5038 153.2786,59.9268 154.1946,61.5138 C156.4616,65.4428 154.4326,74.8138 152.7996,82.3428 C151.7316,87.2718 150.7236,91.9288 150.7236,95.4458 C150.7236,98.6698 151.5806,102.8538 152.5556,107.3238 C154.2546,105.3898 156.0226,103.2848 157.4406,101.3188 C157.0126,99.0488 156.7236,97.0218 156.7236,95.4458 C156.7236,92.5708 157.6666,88.2198 158.6646,83.6148 C160.7056,74.1918 162.8176,64.4498 159.3896,58.5138" id="Fill-47"></path>
                <path d="M148.5322,64.7951 C147.1002,62.3151 145.7532,58.0771 144.3252,53.5901 C141.3892,44.3591 138.3522,34.8141 132.3372,31.4561 C130.2392,30.2841 127.5592,29.7131 124.1492,29.7131 C121.7452,29.7131 119.1632,29.9941 116.5092,30.4171 C117.2902,31.1211 118.0692,31.8311 118.8462,32.5391 C120.0772,33.6621 121.2842,34.7611 122.4272,35.7671 C123.0162,35.7331 123.5912,35.7141 124.1492,35.7141 C126.4752,35.7141 128.2472,36.0441 129.4132,36.6941 C133.3542,38.8961 136.2682,48.0511 138.6082,55.4091 C140.1362,60.2141 141.5792,64.7521 143.3372,67.7951 C144.9462,70.5821 147.7622,73.7721 150.8272,77.1551 C151.3312,74.6231 151.8092,71.9071 152.0522,69.4931 C150.5652,67.7531 149.3172,66.1541 148.5322,64.7951" id="Fill-49"></path>
                <path d="M3.55271368e-15,86.154 L3.55271368e-15,104.736 L21.382,104.736 C19.747,101.825 18.572,98.67 18.572,95.446 C18.572,92.317 19.662,89.219 21.39,86.154 L3.55271368e-15,86.154 Z" id="Fill-51"></path>
                <path d="M86.5595,169.737 L86.5595,172.309 L86.5595,175.934 L86.5595,190.888 L105.1415,190.888 L105.1415,175.934 L105.1415,172.309 L105.1415,169.257 C102.1105,171.02 98.8005,172.309 95.4195,172.309 C92.4385,172.309 89.4845,171.325 86.5595,169.737" id="Fill-53"></path>
                <path d="M148.9297,86.154 L105.1417,86.154 L105.1417,0 L86.5597,0 L86.5597,86.154 L41.9077,86.154 C42.6087,89.62 43.1137,92.749 43.1137,95.446 C43.1137,98.142 42.5947,101.321 41.9077,104.736 L86.5597,104.736 L86.5597,178.87 C89.8687,178.213 92.8587,177.747 95.4417,177.747 C98.2447,177.747 101.5707,178.299 105.1417,179.022 L105.1417,104.736 L148.9407,104.736 C148.2337,101.271 147.7237,98.144 147.7237,95.446 C147.7237,92.746 148.2417,89.567 148.9297,86.154" id="Fill-55"></path>
                <path d="M131.5869,44.7072 C129.3799,43.9302 127.4559,43.1552 126.0709,42.3562 C123.5909,40.9252 120.3039,37.9282 116.8249,34.7552 C113.9539,32.1382 111.0429,29.4922 108.1419,27.2592 L108.1419,35.0332 C109.7359,36.4142 111.3069,37.8442 112.7819,39.1892 C116.5089,42.5872 120.0279,45.7952 123.0709,47.5522 C125.8779,49.1732 129.9499,50.5352 134.3289,51.9432 C133.5089,49.5032 132.5749,46.9162 131.5869,44.7072" id="Fill-57"></path>
                <path d="M176.0508,86.1549 L176.0508,86.1539 L169.4958,86.1539 C171.1318,89.0669 172.3078,92.2229 172.3078,95.4459 C172.3078,98.5729 171.2178,101.6709 169.4908,104.7359 L172.2988,104.7359 L172.2988,104.7369 L190.8788,104.7369 L190.8788,86.1549 L176.0508,86.1549 Z" id="Fill-59"></path>
                <path d="M83.5586,23.339 C81.4836,24.535 79.3876,26.069 77.2896,27.774 C78.3296,27.993 79.3666,28.217 80.3996,28.441 C81.4776,28.675 82.5286,28.899 83.5586,29.115 L83.5586,23.339 Z" id="Fill-61"></path>
                <path d="M108.208,167.7218 C110.283,166.5258 112.379,164.9918 114.477,163.2868 C113.437,163.0678 112.4,162.8438 111.367,162.6198 C110.289,162.3858 109.238,162.1618 108.208,161.9458 L108.208,167.7218 Z" id="Fill-63"></path>
                <path d="M83.5586,32.192 C77.8236,30.95 71.8966,29.669 66.7726,29.669 C63.3176,29.669 60.6146,30.26 58.5066,31.477 C54.5076,33.786 51.8226,38.851 49.5946,44.716 C50.6066,44.386 51.6216,44.06 52.6316,43.735 C54.2116,43.23 55.7546,42.734 57.1906,42.245 C58.4836,39.644 59.9126,37.593 61.5066,36.673 C62.6616,36.007 64.4326,35.668 66.7726,35.668 C71.2686,35.668 76.8956,36.888 82.3376,38.067 C82.7476,38.155 83.1536,38.242 83.5586,38.33 L83.5586,32.192 Z" id="Fill-65"></path>
                <path d="M132.3388,159.4328 C136.4148,157.1578 139.1218,152.0388 141.3588,146.1028 C140.3158,146.4468 139.2708,146.7868 138.2278,147.1228 C136.6848,147.6208 135.1768,148.1088 133.7708,148.5898 C132.4698,151.2248 131.0278,153.2928 129.4128,154.1948 C128.2468,154.8458 126.4758,155.1748 124.1498,155.1748 C119.6418,155.1748 114.0068,153.9688 108.5588,152.8028 C108.4408,152.7768 108.3248,152.7528 108.2078,152.7278 L108.2078,158.8628 C113.6778,160.0308 119.2758,161.1748 124.1498,161.1748 C127.5598,161.1748 130.2388,160.6068 132.3388,159.4328" id="Fill-67"></path>
                <path d="M78.0761,151.6872 C74.3411,148.2982 70.8131,145.0972 67.7661,143.3382 C64.9781,141.7292 60.9431,140.3752 56.5981,138.9772 C57.4271,141.4202 58.3691,144.0102 59.3661,146.2242 C61.5231,146.9882 63.4061,147.7492 64.7651,148.5352 C67.2571,149.9722 70.5541,152.9622 74.0441,156.1302 C77.2051,158.9992 80.4141,161.9092 83.6041,164.2632 L83.6041,156.5842 C81.7071,154.9802 79.8251,153.2742 78.0761,151.6872" id="Fill-69"></path>
            </g>
        </g>
    </g>
</svg>